<?xml version="1.0" standalone="no"?>
<!DOCTYPE svg PUBLIC "-//W3C//DTD SVG 20010904//EN"
 "http://www.w3.org/TR/2001/REC-SVG-20010904/DTD/svg10.dtd">
<svg version="1.0" xmlns="http://www.w3.org/2000/svg"
 width="500.000000pt" height="500.000000pt" viewBox="0 0 500.000000 500.000000"
 preserveAspectRatio="xMidYMid meet">

<g transform="translate(0.000000,500.000000) scale(0.100000,-0.100000)"
fill="#000000" stroke="none">
<path d="M2347 4299 c-437 -31 -895 -259 -1188 -590 -338 -383 -495 -836 -460
-1330 25 -352 126 -637 330 -931 83 -120 306 -342 431 -430 179 -127 418 -233
650 -288 202 -48 523 -52 730 -10 471 96 886 367 1150 751 197 286 303 602
317 945 21 508 -157 979 -506 1338 -257 264 -552 429 -912 510 -101 22 -340
48 -409 45 -14 -1 -74 -5 -133 -10z m488 -138 c517 -109 941 -433 1179 -901
95 -185 145 -354 171 -570 31 -263 9 -477 -75 -731 -209 -630 -765 -1075
-1432 -1148 -549 -60 -1111 163 -1466 581 -382 451 -506 1073 -326 1627 141
434 451 793 859 995 147 73 306 126 445 150 52 9 106 18 120 20 14 3 115 3
225 1 157 -2 222 -7 300 -24z"/>
<path d="M2365 3484 c-40 -7 -110 -33 -163 -59 -157 -78 -282 -224 -335 -390
-21 -68 -22 -83 -22 -520 0 -437 1 -452 22 -520 92 -290 372 -481 676 -462
168 11 304 73 428 196 85 85 136 169 171 281 23 74 23 83 23 500 0 381 -2 432
-18 489 -75 265 -293 457 -559 494 l-38 6 0 -208 0 -208 39 -26 c80 -53 121
-202 88 -318 -19 -62 -72 -130 -117 -149 -44 -18 -113 -7 -154 24 -132 100
-115 378 27 452 l27 15 0 209 c0 162 -3 210 -12 209 -7 0 -44 -7 -83 -15z"/>
<path d="M2450 2972 c-98 -98 -32 -353 77 -300 47 23 67 62 71 137 5 80 -7
125 -43 164 -33 35 -69 35 -105 -1z"/>
</g>
</svg>
